<mxfile host="Electron" agent="Mozilla/5.0 (X11; Linux x86_64) AppleWebKit/537.36 (KHTML, like Gecko) draw.io/26.2.15 Chrome/134.0.6998.205 Electron/35.4.0 Safari/537.36" version="26.2.15">
  <diagram id="C5RBs43oDa-KdzZeNtuy" name="Page-1">
    <mxGraphModel dx="701" dy="889" grid="1" gridSize="10" guides="1" tooltips="1" connect="1" arrows="1" fold="1" page="1" pageScale="1" pageWidth="827" pageHeight="1169" math="0" shadow="0">
      <root>
        <mxCell id="WIyWlLk6GJQsqaUBKTNV-0" />
        <mxCell id="WIyWlLk6GJQsqaUBKTNV-1" parent="WIyWlLk6GJQsqaUBKTNV-0" />
        <mxCell id="jyDG9MxLNxctg-NhNLhG-4" value="Crc32" style="swimlane;fontStyle=1;align=center;verticalAlign=top;childLayout=stackLayout;horizontal=1;startSize=26;horizontalStack=0;resizeParent=1;resizeParentMax=0;resizeLast=0;collapsible=1;marginBottom=0;whiteSpace=wrap;html=1;" vertex="1" parent="WIyWlLk6GJQsqaUBKTNV-1">
          <mxGeometry x="300" y="280" width="260" height="210" as="geometry" />
        </mxCell>
        <mxCell id="jyDG9MxLNxctg-NhNLhG-5" value="- crc: Crc" style="text;strokeColor=none;fillColor=none;align=left;verticalAlign=top;spacingLeft=4;spacingRight=4;overflow=hidden;rotatable=0;points=[[0,0.5],[1,0.5]];portConstraint=eastwest;whiteSpace=wrap;html=1;" vertex="1" parent="jyDG9MxLNxctg-NhNLhG-4">
          <mxGeometry y="26" width="260" height="26" as="geometry" />
        </mxCell>
        <mxCell id="jyDG9MxLNxctg-NhNLhG-6" value="" style="line;strokeWidth=1;fillColor=none;align=left;verticalAlign=middle;spacingTop=-1;spacingLeft=3;spacingRight=3;rotatable=0;labelPosition=right;points=[];portConstraint=eastwest;strokeColor=inherit;" vertex="1" parent="jyDG9MxLNxctg-NhNLhG-4">
          <mxGeometry y="52" width="260" height="8" as="geometry" />
        </mxCell>
        <mxCell id="jyDG9MxLNxctg-NhNLhG-7" value="+ new(crc: Crc, init_val: u32, poly: u32): Self&lt;div&gt;+ read():&amp;nbsp;nb::Result&amp;lt;u32, Infallible&amp;gt;&lt;/div&gt;&lt;div&gt;+ is_busy(): bool&lt;/div&gt;&lt;div&gt;+ write(val: u32)&lt;/div&gt;&lt;div&gt;+ set_poly(val: u32)&lt;/div&gt;&lt;div&gt;+&amp;nbsp;set_input_reverse(tot: Tot)&lt;/div&gt;&lt;div&gt;+ set_output_reverse(totr: Totr)&lt;/div&gt;&lt;div&gt;+ set_output_inverse(fxor: Fxor)&lt;/div&gt;&lt;div&gt;+ reset(init_val: u32)&lt;/div&gt;&lt;div&gt;&lt;br&gt;&lt;/div&gt;" style="text;strokeColor=none;fillColor=none;align=left;verticalAlign=top;spacingLeft=4;spacingRight=4;overflow=hidden;rotatable=0;points=[[0,0.5],[1,0.5]];portConstraint=eastwest;whiteSpace=wrap;html=1;" vertex="1" parent="jyDG9MxLNxctg-NhNLhG-4">
          <mxGeometry y="60" width="260" height="150" as="geometry" />
        </mxCell>
      </root>
    </mxGraphModel>
  </diagram>
</mxfile>
